<?xml version="1.0" standalone="no"?>
<!DOCTYPE svg PUBLIC "-//W3C//DTD SVG 20010904//EN"
 "http://www.w3.org/TR/2001/REC-SVG-20010904/DTD/svg10.dtd">
<svg version="1.0" xmlns="http://www.w3.org/2000/svg"
 width="460.000000pt" height="460.000000pt" viewBox="0 0 460.000000 460.000000"
 preserveAspectRatio="xMidYMid meet">
<metadata>
Created by potrace 1.14, written by Peter Selinger 2001-2017
</metadata>
<g transform="translate(0.000000,460.000000) scale(0.100000,-0.100000)"
fill="#000000" stroke="none">
<path d="M2310 4475 c0 -8 1 -16 3 -18 10 -12 -320 -351 -609 -626 -54 -52
-147 -140 -205 -195 -58 -56 -184 -176 -280 -267 -96 -91 -205 -196 -244 -233
-38 -36 -112 -106 -164 -154 -52 -48 -138 -130 -191 -182 -53 -52 -172 -169
-265 -260 -228 -224 -307 -320 -261 -320 12 0 197 -118 245 -156 9 -7 102 -77
206 -155 222 -166 277 -210 365 -289 36 -32 101 -88 145 -125 44 -37 98 -83
119 -103 22 -20 55 -49 73 -64 139 -110 567 -521 728 -699 108 -118 244 -301
245 -327 0 -7 7 -27 16 -44 20 -39 21 -98 1 -113 -10 -7 -12 -16 -7 -24 12
-21 27 -5 35 36 5 26 26 60 68 108 63 73 289 299 445 445 50 47 139 131 199
187 59 56 120 112 135 125 15 13 59 52 97 88 38 36 99 92 136 125 37 33 95 85
129 116 33 31 117 105 186 164 69 59 165 144 214 189 49 45 98 88 110 96 11 8
28 22 36 31 17 19 107 95 216 181 39 31 78 63 85 71 8 8 55 43 104 77 50 35
93 68 96 73 11 15 -66 135 -131 207 -8 9 -34 39 -57 66 -22 27 -49 58 -60 69
-185 203 -248 270 -358 382 -71 73 -155 158 -186 190 -31 32 -153 150 -270
263 -117 113 -265 256 -329 318 -64 61 -137 131 -162 155 -170 158 -421 395
-564 532 -48 47 -82 75 -89 75 -3 0 -5 -7 -5 -15z"/>
</g>
</svg>
